<svg xmlns="http://www.w3.org/2000/svg" viewBox="0 0 128 128" width="128" height="128" aria-label="Fox sprite">
  <defs>
    <linearGradient id="fur" x1="0%" y1="0%" x2="100%" y2="100%">
      <stop offset="0%" style="stop-color:#ff9a3c"/>
      <stop offset="100%" style="stop-color:#e86b1f"/>
    </linearGradient>
    <linearGradient id="earIn" x1="0%" y1="0%" x2="0%" y2="100%">
      <stop offset="0%" style="stop-color:#ffb89a"/>
      <stop offset="100%" style="stop-color:#ff8a65"/>
    </linearGradient>
  </defs>
  <!-- tail -->
  <path fill="url(#fur)" d="M98 72c12-4 22 2 26 14 2 8-2 18-12 22-8 3-18 1-24-6-4-5-6-12-4-20 2-6 8-10 14-10z"/>
  <path fill="#c45a12" opacity="0.35" d="M104 78c6 2 10 8 10 15 0 6-4 11-10 13"/>
  <!-- body -->
  <ellipse cx="58" cy="78" rx="34" ry="28" fill="url(#fur)"/>
  <ellipse cx="58" cy="82" rx="18" ry="16" fill="#fff5e6" opacity="0.95"/>
  <!-- legs -->
  <ellipse cx="42" cy="100" rx="8" ry="10" fill="url(#fur)"/>
  <ellipse cx="72" cy="100" rx="8" ry="10" fill="url(#fur)"/>
  <ellipse cx="42" cy="106" rx="6" ry="5" fill="#3d2914"/>
  <ellipse cx="72" cy="106" rx="6" ry="5" fill="#3d2914"/>
  <!-- head -->
  <circle cx="52" cy="44" r="30" fill="url(#fur)"/>
  <!-- ears -->
  <path fill="url(#fur)" d="M28 22 L38 8 L48 24 Z"/>
  <path fill="url(#fur)" d="M56 18 L68 6 L76 26 Z"/>
  <path fill="url(#earIn)" d="M32 20 L38 12 L44 22 Z"/>
  <path fill="url(#earIn)" d="M60 18 L68 10 L72 22 Z"/>
  <path fill="#5c3d2e" d="M36 12 L38 8 L40 12 Z"/>
  <path fill="#5c3d2e" d="M66 8 L68 6 L70 10 Z"/>
  <!-- snout -->
  <ellipse cx="44" cy="48" rx="22" ry="18" fill="#fff5e6"/>
  <ellipse cx="32" cy="46" rx="8" ry="7" fill="#1a1a1a"/>
  <ellipse cx="56" cy="46" rx="8" ry="7" fill="#1a1a1a"/>
  <circle cx="34" cy="44" r="2.5" fill="#fff"/>
  <circle cx="58" cy="44" r="2.5" fill="#fff"/>
  <ellipse cx="44" cy="56" rx="10" ry="7" fill="#ffe8d4"/>
  <ellipse cx="44" cy="58" rx="5" ry="4" fill="#3d2914"/>
  <!-- nose -->
  <path fill="#2a1810" d="M40 52 Q44 58 48 52 Q44 54 40 52"/>
  <!-- smile -->
  <path fill="none" stroke="#c45a12" stroke-width="1.5" stroke-linecap="round" d="M36 62 Q44 68 52 62"/>
</svg>
