<svg xmlns="http://www.w3.org/2000/svg" viewBox="0 0 128 128" width="128" height="128">
  <line x1="64" y1="14" x2="64" y2="22" stroke="#3a2412" stroke-width="3"/>
  <circle cx="64" cy="12" r="5" fill="#ff5c5c" stroke="#3a2412" stroke-width="2"/>
  <rect x="36" y="22" width="56" height="46" rx="10" fill="#bcd6ff" stroke="#3a2412" stroke-width="3"/>
  <circle cx="50" cy="40" r="6" fill="#fff"/>
  <circle cx="78" cy="40" r="6" fill="#fff"/>
  <circle cx="50" cy="40" r="3" fill="#1a1a1a"/>
  <circle cx="78" cy="40" r="3" fill="#1a1a1a"/>
  <rect x="48" y="52" width="32" height="8" rx="3" fill="#3a2412"/>
  <line x1="54" y1="52" x2="54" y2="60" stroke="#bcd6ff" stroke-width="1.5"/>
  <line x1="60" y1="52" x2="60" y2="60" stroke="#bcd6ff" stroke-width="1.5"/>
  <line x1="66" y1="52" x2="66" y2="60" stroke="#bcd6ff" stroke-width="1.5"/>
  <line x1="72" y1="52" x2="72" y2="60" stroke="#bcd6ff" stroke-width="1.5"/>
  <rect x="40" y="72" width="48" height="34" rx="6" fill="#8aaae0" stroke="#3a2412" stroke-width="3"/>
  <circle cx="54" cy="88" r="3" fill="#ffd000"/>
  <circle cx="74" cy="88" r="3" fill="#ff5c5c"/>
  <rect x="20" y="76" width="14" height="22" rx="4" fill="#bcd6ff" stroke="#3a2412" stroke-width="3"/>
  <rect x="94" y="76" width="14" height="22" rx="4" fill="#bcd6ff" stroke="#3a2412" stroke-width="3"/>
  <rect x="42" y="106" width="14" height="14" fill="#3a2412"/>
  <rect x="72" y="106" width="14" height="14" fill="#3a2412"/>
</svg>
